<svg width="137" height="137" viewBox="0 0 137 137" fill="none" xmlns="http://www.w3.org/2000/svg">
<g clip-path="url(#clip0_1189_5290)">
<path d="M112.232 40.6917L44.3158 73.5436L22 60.672L112.232 40.6917Z" fill="url(#paint0_linear_1189_5290)"/>
<path d="M112.232 40.6917L55.2143 79.8241L77.5301 92.6612L112.232 40.6917Z" fill="url(#paint1_linear_1189_5290)"/>
<path d="M55.2143 79.8241L112.232 40.6917L44.3158 73.5436L49.7477 94.1796L55.2143 79.8241Z" fill="url(#paint2_linear_1189_5290)"/>
<path d="M43.3125 72.957L112.232 40.6917L44.3158 73.5436L43.3125 72.957Z" fill="#FCC29F"/>
<path d="M55.2143 79.8241L112.232 40.6917L56.0792 80.3072L55.2143 79.8241Z" fill="#FBA999"/>
<path opacity="0.1" d="M97.7701 95.6636L36.4621 109.26L50.9587 117.611L51.6161 117.99L59.7121 117.404L63.6217 124.927L74.1741 131L97.7701 95.6636Z" fill="#5F2400"/>
</g>
<defs>
<linearGradient id="paint0_linear_1189_5290" x1="75.5439" y1="62.0353" x2="54.161" y2="8.82494" gradientUnits="userSpaceOnUse">
<stop stop-color="#FEC746"/>
<stop offset="0.5634" stop-color="#EE8594"/>
<stop offset="1" stop-color="#E4608D"/>
</linearGradient>
<linearGradient id="paint1_linear_1189_5290" x1="102.61" y1="71.6192" x2="86.2494" y2="42.6461" gradientUnits="userSpaceOnUse">
<stop stop-color="#FEC746"/>
<stop offset="0.5634" stop-color="#FEC746"/>
<stop offset="1" stop-color="#FEC746"/>
</linearGradient>
<linearGradient id="paint2_linear_1189_5290" x1="97.7384" y1="90.8152" x2="86.0671" y2="41.6572" gradientUnits="userSpaceOnUse">
<stop stop-color="#F88B93"/>
<stop offset="0.2064" stop-color="#D76D8E"/>
<stop offset="0.5733" stop-color="#A23D87"/>
<stop offset="0.8491" stop-color="#811F82"/>
<stop offset="1" stop-color="#751480"/>
</linearGradient>
<clipPath id="clip0_1189_5290">
<rect width="93" height="93" fill="white" transform="translate(22 38)"/>
</clipPath>
</defs>
</svg>
