<svg width="162" height="63" viewBox="0 0 162 63" fill="none" xmlns="http://www.w3.org/2000/svg">
<path fill-rule="evenodd" clip-rule="evenodd" d="M45.2842 41.4661C50.906 41.5807 55.5605 37.3141 55.6803 31.9364C55.8001 26.5587 51.3398 22.1063 45.718 21.9917L41.119 21.898C37.6368 21.827 34.5257 23.437 32.6336 25.9507C32.3404 26.3402 32.6783 26.8554 33.1799 26.8657C37.2461 26.9485 40.4941 29.1824 40.4346 31.8552C40.3751 34.5279 37.0305 36.6274 32.9643 36.5445C32.5929 36.5369 32.3403 36.9195 32.5532 37.2107C34.3511 39.6699 37.3086 41.3035 40.6852 41.3724L45.2842 41.4661Z" fill="#7614AC"/>
<path fill-rule="evenodd" clip-rule="evenodd" d="M31.3504 37.7799C32.0293 37.0441 31.2418 36.0044 30.2161 35.9835C26.3427 35.9045 23.2495 33.7434 23.3071 31.1565C23.3647 28.5696 26.5514 26.5365 30.4248 26.6154C31.3484 26.6343 32.0683 25.7032 31.4696 25.0302C29.6497 22.9843 26.9583 21.6637 23.9298 21.602L20.5753 21.5336C14.9535 21.419 10.299 25.6856 10.1792 31.0633C10.0594 36.441 14.5197 40.8934 20.1415 41.008L23.496 41.0763C26.615 41.1399 29.4361 39.855 31.3504 37.7799Z" fill="#7614AC"/>
<path d="M67.5259 40.3765V39.0933C68.3228 38.9292 68.9204 38.7534 69.3188 38.5659C69.729 38.3667 69.9341 38.1851 69.9341 38.021V20.021C69.4888 20.0796 69.061 20.1382 68.6509 20.1968C68.2524 20.2554 67.8774 20.314 67.5259 20.3726L67.2974 18.7554C67.9302 18.603 68.6333 18.4624 69.4067 18.3335C70.1802 18.2046 70.9829 18.0933 71.8149 17.9995C72.6587 17.9058 73.5024 17.8354 74.3462 17.7886C75.2017 17.73 76.0161 17.7007 76.7896 17.7007C78.1489 17.7007 79.3853 17.8354 80.4985 18.105C81.6235 18.3745 82.5845 18.7729 83.3813 19.3003C84.1782 19.8276 84.7935 20.478 85.2271 21.2515C85.6606 22.0249 85.8774 22.9155 85.8774 23.9233C85.8774 24.7319 85.7661 25.4761 85.5435 26.1558C85.3208 26.8354 85.0161 27.4448 84.6294 27.9839C84.2544 28.5229 83.8149 28.9976 83.311 29.4077C82.8188 29.8179 82.2915 30.1577 81.729 30.4272C81.1782 30.6968 80.6157 30.9019 80.0415 31.0425C79.479 31.1714 78.9399 31.2358 78.4243 31.2358C77.8853 31.2358 77.3579 31.1948 76.8423 31.1128C76.3267 31.019 75.8696 30.8843 75.4712 30.7085L74.9263 28.8628C75.4067 29.0854 75.8286 29.2319 76.1919 29.3022C76.5669 29.3608 76.9595 29.3901 77.3696 29.3901C77.8735 29.3901 78.3716 29.3022 78.8638 29.1265C79.356 28.939 79.7896 28.6519 80.1646 28.2651C80.5513 27.8784 80.8618 27.3862 81.0962 26.7886C81.3306 26.1909 81.4478 25.4761 81.4478 24.644C81.4478 23.812 81.3071 23.0796 81.0259 22.4468C80.7563 21.814 80.3696 21.2866 79.8657 20.8647C79.3735 20.4312 78.7817 20.1089 78.0903 19.8979C77.3989 19.6753 76.6313 19.564 75.7876 19.564C75.5532 19.564 75.313 19.5698 75.0669 19.5815C74.8325 19.5815 74.5864 19.5874 74.3286 19.5991V38.021C74.3286 38.0913 74.3638 38.1675 74.4341 38.2495C74.5161 38.3315 74.6626 38.4194 74.8735 38.5132C75.0962 38.6069 75.4009 38.7007 75.7876 38.7944C76.1743 38.8882 76.6724 38.9878 77.2817 39.0933V40.3765H67.5259ZM95.3274 40.3765V39.0933C95.8313 39.0112 96.2415 38.9292 96.5579 38.8472C96.886 38.7534 97.1438 38.6655 97.3313 38.5835C97.5188 38.4897 97.6478 38.396 97.7181 38.3022C97.7884 38.2085 97.8235 38.1147 97.8235 38.021V18.1226C97.8235 17.5952 97.7942 17.1851 97.7356 16.8921C97.6771 16.5991 97.5657 16.3823 97.4017 16.2417C97.2376 16.0894 97.0032 15.9897 96.6985 15.9429C96.3938 15.8843 95.9954 15.8257 95.5032 15.7671V14.5366C96.0892 14.4546 96.6341 14.3726 97.138 14.2905C97.6419 14.1968 98.1224 14.0972 98.5794 13.9917C99.0364 13.8862 99.4876 13.7632 99.9329 13.6226C100.378 13.4819 100.829 13.3179 101.286 13.1304L102.042 13.8511V38.021C102.042 38.1147 102.083 38.2085 102.165 38.3022C102.247 38.3843 102.382 38.4722 102.57 38.5659C102.769 38.6597 103.027 38.7534 103.343 38.8472C103.671 38.9292 104.075 39.0112 104.556 39.0933V40.3765H95.3274ZM132.533 38.4077C132.1 38.689 131.619 38.9761 131.092 39.269C130.576 39.562 130.072 39.8315 129.58 40.0776C129.1 40.3237 128.666 40.5229 128.279 40.6753C127.904 40.8276 127.647 40.9038 127.506 40.9038C127.295 40.9038 127.09 40.8628 126.891 40.7808C126.703 40.7104 126.522 40.5698 126.346 40.3589C126.182 40.1362 126.035 39.8374 125.906 39.4624C125.777 39.0757 125.678 38.5835 125.608 37.9858C124.881 38.6187 124.225 39.1284 123.639 39.5151C123.065 39.8901 122.537 40.1831 122.057 40.394C121.588 40.605 121.154 40.7397 120.756 40.7983C120.358 40.8687 119.971 40.9038 119.596 40.9038C119.045 40.9038 118.506 40.8276 117.979 40.6753C117.451 40.5229 116.977 40.2476 116.555 39.8491C116.133 39.439 115.793 38.8823 115.535 38.1792C115.277 37.4761 115.149 36.5737 115.149 35.4722V28.2651C115.149 27.7026 115.137 27.269 115.113 26.9644C115.102 26.6479 115.025 26.4136 114.885 26.2612C114.756 26.0972 114.545 25.9858 114.252 25.9272C113.971 25.8687 113.561 25.8101 113.022 25.7515V24.521C113.608 24.4741 114.141 24.4214 114.621 24.3628C115.113 24.3042 115.582 24.2397 116.027 24.1694C116.473 24.0874 116.912 23.9937 117.346 23.8882C117.791 23.7827 118.26 23.6538 118.752 23.5015L119.367 24.3101V34.3647C119.367 35.0913 119.408 35.6831 119.49 36.1401C119.584 36.5972 119.719 36.9546 119.895 37.2124C120.07 37.4585 120.281 37.6284 120.527 37.7222C120.785 37.8159 121.078 37.8628 121.406 37.8628C121.652 37.8628 121.916 37.8335 122.197 37.7749C122.49 37.7163 122.807 37.6108 123.147 37.4585C123.498 37.2944 123.873 37.0776 124.272 36.8081C124.682 36.5386 125.127 36.1929 125.608 35.771V28.2651C125.608 27.7378 125.584 27.3159 125.537 26.9995C125.502 26.6831 125.408 26.437 125.256 26.2612C125.104 26.0854 124.869 25.9624 124.553 25.8921C124.248 25.8218 123.826 25.7749 123.287 25.7515V24.521C124.459 24.4155 125.52 24.2749 126.469 24.0991C127.43 23.9116 128.332 23.7124 129.176 23.5015L129.826 24.3101V35.3843C129.826 35.7476 129.832 36.0522 129.844 36.2983C129.856 36.5327 129.873 36.7319 129.897 36.896C129.932 37.0483 129.973 37.1714 130.02 37.2651C130.078 37.3589 130.149 37.4351 130.231 37.4937C130.371 37.5874 130.565 37.6108 130.811 37.564C131.068 37.5054 131.496 37.3472 132.094 37.0894L132.533 38.4077ZM152.847 37.6519C151.288 38.7769 149.97 39.603 148.892 40.1304C147.813 40.646 146.964 40.9038 146.343 40.9038C145.839 40.9038 145.358 40.8042 144.901 40.605C144.456 40.4175 144.063 40.1245 143.724 39.7261C143.395 39.3276 143.132 38.8296 142.933 38.2319C142.733 37.6226 142.634 36.9077 142.634 36.0874V26.2261H140.507L139.997 25.5933L141.368 24.0288H142.634V20.355L146.184 17.7358L146.852 18.3159V24.0288H152.214L152.847 24.6616C152.741 24.8608 152.606 25.0718 152.442 25.2944C152.29 25.5054 152.132 25.7163 151.968 25.9272C151.804 26.1265 151.64 26.3081 151.475 26.4722C151.323 26.6362 151.188 26.7593 151.071 26.8413C150.931 26.771 150.749 26.7007 150.526 26.6304C150.315 26.5601 150.075 26.4956 149.806 26.437C149.536 26.3667 149.249 26.314 148.944 26.2788C148.651 26.2437 148.347 26.2261 148.03 26.2261H146.852V34.4526C146.852 35.0503 146.888 35.5601 146.958 35.9819C147.028 36.3921 147.128 36.7261 147.257 36.9839C147.397 37.23 147.556 37.4116 147.731 37.5288C147.919 37.6343 148.124 37.687 148.347 37.687C148.558 37.687 148.774 37.6694 148.997 37.6343C149.231 37.5874 149.495 37.5171 149.788 37.4233C150.081 37.3296 150.409 37.2007 150.772 37.0366C151.147 36.8608 151.581 36.6382 152.073 36.3687L152.847 37.6519Z" fill="#7614AC"/>
</svg>
